<svg width="512" height="512" viewBox="0 0 512 512" fill="none" xmlns="http://www.w3.org/2000/svg">
<rect x="26" y="210.994" width="295.575" height="61" transform="rotate(-34.6362 26 210.994)" fill="#9A3B98"/>
<rect x="264.248" y="43" width="295.575" height="61" transform="rotate(37.6341 264.248 43)" fill="#9A3B98"/>
<rect x="90" y="256" width="340" height="222" fill="#00C07F"/>
<path d="M250.5 130L419.808 267.25H81.192L250.5 130Z" fill="#00C07F"/>
<g clip-path="url(#clip0)">
<path d="M511.863 216.775C511.326 212.83 509.243 209.259 506.074 206.848L265.089 23.583C259.718 19.499 252.282 19.499 246.911 23.583L5.92601 206.848C2.75601 209.258 0.674014 212.83 0.137014 216.775C-0.399986 220.721 0.653014 224.719 3.06301 227.889L45.934 284.262C48.344 287.431 51.916 289.514 55.862 290.051C59.807 290.59 63.806 289.535 66.975 287.124L72.017 283.289V476.466C72.017 484.758 78.74 491.481 87.032 491.481H424.963C433.255 491.481 439.978 484.758 439.978 476.466V283.285L445.026 287.124C447.654 289.123 450.85 290.188 454.115 290.188C454.788 290.188 455.464 290.143 456.139 290.051C460.085 289.515 463.656 287.431 466.067 284.262L508.938 227.889C511.347 224.718 512.4 220.722 511.863 216.775ZM102.045 461.451V260.453L135.42 235.071L255.998 143.373L385.755 242.048L409.948 260.446V461.449H102.045V461.451ZM451.252 254.133L265.089 112.559C262.403 110.517 258.189 109.495 256 109.495C253.81 109.495 249.257 110.771 246.908 112.559L60.748 254.133L36.055 221.661L256 54.398L475.945 221.662L451.252 254.133Z" fill="#2D2C2B"/>
<path d="M191.785 234.975C163.635 234.975 140.733 257.876 140.733 286.027C140.733 314.178 163.634 337.079 191.785 337.079C219.936 337.079 242.837 314.178 242.837 286.027C242.837 257.876 219.936 234.975 191.785 234.975ZM191.785 307.049C180.193 307.049 170.762 297.618 170.762 286.026C170.762 274.435 180.192 265.003 191.785 265.003C203.377 265.003 212.808 274.434 212.808 286.026C212.808 297.618 203.376 307.049 191.785 307.049Z" fill="#2D2C2B"/>
<path d="M320.216 326.857C292.066 326.857 269.164 349.758 269.164 377.909C269.164 406.059 292.065 428.961 320.216 428.961C348.367 428.961 371.268 406.06 371.268 377.909C371.267 349.759 348.365 326.857 320.216 326.857ZM320.216 398.932C308.624 398.932 299.193 389.501 299.193 377.909C299.193 366.318 308.623 356.886 320.216 356.886C331.809 356.886 341.239 366.317 341.239 377.909C341.238 389.5 331.807 398.932 320.216 398.932Z" fill="#2D2C2B"/>
<path d="M310.517 236.966C303.324 232.84 294.148 235.322 290.021 242.515L195.932 406.472C191.805 413.665 194.289 422.841 201.481 426.968C203.837 428.32 206.406 428.963 208.94 428.963C214.143 428.963 219.201 426.255 221.977 421.419L316.066 257.462C320.195 250.269 317.71 241.093 310.517 236.966Z" fill="#2D2C2B"/>
</g>
<defs>
<clipPath id="clip0">
<rect width="512" height="512" fill="white"/>
</clipPath>
</defs>
</svg>
